<svg width="80" height="81" viewBox="0 0 80 81" fill="none" xmlns="http://www.w3.org/2000/svg">
<g id="Logo">
<path id="Vector" d="M51.9503 53.3605H27.0083C21.0422 53.0085 17.4883 46.3369 17.4883 40.4973C17.4883 34.6577 21.262 27.6395 27.5497 27.6395H52.4917C58.4524 27.9915 62.0118 34.6577 62.0118 40.4973C62.0118 46.3369 58.238 53.3605 51.9449 53.3605M56.9247 40.4973C56.9247 37.6655 55.8312 33.3031 50.7978 33.3031H28.6969C23.6634 33.3031 22.5699 37.6708 22.5699 40.4973C22.5699 43.3238 23.6634 47.6968 28.6969 47.6968H50.7978C55.8312 47.6968 56.9247 43.3291 56.9247 40.4973Z" fill="white"/>
<path id="Vector_2" d="M7.87169 33.3032C11.2541 18.3601 24.3388 7.9395 39.75 7.9395C55.1612 7.9395 68.2405 18.3601 71.623 33.3032H79.2562L79.2294 33.1752C77.5301 24.0984 72.62 15.8056 65.4049 9.81672C58.1683 3.80645 49.0557 0.5 39.75 0.5C30.4443 0.5 21.3317 3.80645 14.0951 9.81672C6.88001 15.8056 1.96988 24.0984 0.265273 33.1752L0.243835 33.3032H7.87169Z" fill="white"/>
<path id="Vector_3" d="M71.639 47.7022C68.2727 62.4052 54.8824 73.0605 39.75 73.0605C24.6175 73.0605 11.2273 62.4052 7.86092 47.7022H0.249146L0.275949 47.8408C1.98056 56.9336 6.87997 65.2263 14.0736 71.1993C21.2941 77.1989 30.4121 80.5 39.75 80.5C49.0878 80.5 58.2058 77.1989 65.4263 71.1993C72.6146 65.2263 77.514 56.9336 79.224 47.8408L79.2508 47.7022H71.639Z" fill="white"/>
</g>
</svg>
