<svg width="95" height="23" viewBox="0 0 95 23" fill="none" xmlns="http://www.w3.org/2000/svg">
<g id="Uvation Mono White">
<path id="Vector" d="M72.3698 14.6253H65.8925C64.3427 14.5338 63.4199 12.7826 63.4199 11.25C63.4199 9.71737 64.4008 7.87466 66.0341 7.87466H72.5114C74.0612 7.96616 74.984 9.71737 74.984 11.25C74.984 12.7826 74.003 14.6253 72.3698 14.6253ZM73.6617 11.25C73.6617 10.5078 73.3785 9.36154 72.0715 9.36154H66.3324C65.0253 9.36154 64.7421 10.5078 64.7421 11.25C64.7421 11.9922 65.0253 13.1385 66.3324 13.1385H72.0715C73.3785 13.1385 73.6617 11.9922 73.6617 11.25Z" fill="white"/>
<path id="Vector_2" d="M0.967834 7.88229L0.985532 13.8654C0.985532 14.2847 1.32684 14.6228 1.744 14.6228H11.7734C12.1906 14.6228 12.5319 14.2822 12.5319 13.8628V7.87466H11.1692V13.1334H2.33307V7.88483H0.970363L0.967834 7.88229Z" fill="white"/>
<path id="Vector_3" d="M15.4116 7.88738L20.0761 14.6228H22.1948L26.9605 7.87468L25.1806 7.87213L21.181 13.5909L17.1788 7.87213L15.4116 7.88738Z" fill="white"/>
<path id="Vector_4" d="M27.274 14.6177L28.3763 13.0698C28.8768 12.3658 29.6859 11.9464 30.548 11.9464H35.162L32.2621 7.87466H34.0471L38.7925 14.6126H37.0379L36.5197 13.8781C36.3528 13.6417 36.0823 13.5019 35.7966 13.5019L30.28 13.5095C29.9918 13.5095 29.7238 13.6493 29.5569 13.8882L29.0311 14.638L27.274 14.6202V14.6177Z" fill="white"/>
<path id="Vector_5" d="M39.551 9.35645L44.2737 9.33612V14.6228H45.8463V9.36154H50.6878V7.87466H39.551V9.35645Z" fill="white"/>
<path id="Vector_6" d="M53.5674 7.87213H54.9327V14.6177L53.5674 14.6253V7.87213Z" fill="white"/>
<path id="Vector_7" d="M84.8592 14.6228H83.494V7.87213H84.8592L93.1694 13.1385V7.87213H94.5322V14.6228H93.1694L84.8567 9.35393L84.8592 14.6228Z" fill="white"/>
<path id="Vector_8" d="M60.922 9.36155C61.8018 5.43976 65.1998 2.70747 69.1994 2.70747C73.199 2.70747 76.5995 5.4423 77.4768 9.36155H79.4589L79.4539 9.32851C79.0114 6.94697 77.7372 4.77129 75.8638 3.20054C73.9853 1.62471 71.6189 0.755463 69.2019 0.755463C66.785 0.755463 64.4185 1.62471 62.5401 3.20054C60.6667 4.77129 59.3899 6.94951 58.95 9.32851L58.9449 9.36155H60.9271H60.922Z" fill="white"/>
<path id="Vector_9" d="M77.4818 13.1385C76.6071 16.9967 73.1308 19.7925 69.2019 19.7925C65.2731 19.7925 61.7943 16.9967 60.922 13.1385H58.9449L58.9525 13.1766C59.395 15.5632 60.6667 17.7389 62.535 19.3071C64.411 20.8804 66.7774 21.7471 69.2019 21.7471C71.6265 21.7471 73.9954 20.8804 75.8688 19.3071C77.7347 17.7389 79.0089 15.5632 79.4513 13.1766L79.4589 13.1385H77.4818Z" fill="white"/>
</g>
</svg>
